<svg xmlns="http://www.w3.org/2000/svg" viewBox="0 0 900 120" width="900" height="120">
  <g transform="translate(10, 10)">
    <!-- VG Monogram Mark -->
    <!-- Serif V -->
    <path d="M 5,8 L 30,8 L 28,16 L 22,16 L 42,75 L 58,22 L 50,22 L 52,14 L 76,14 L 74,22 L 67,22 L 46,88 L 34,88 L 11,22 L 4,22 Z" fill="#731A73"/>
    <!-- Intertwined G -->
    <path d="M 56,12 C 72,12 84,23 84,38 C 84,54 72,64 56,64 C 47,64 40,59 36,51 L 46,46 C 48,51 51,55 56,55 C 63,55 71,48 71,38 C 71,28 63,21 56,21 C 51,21 46,24 43,28 L 58,28 L 58,36 L 33,36 L 33,12 L 43,12 L 43,19 C 46,14 51,12 56,12 Z" fill="#731A73"/>
  </g>

  <!-- Top Line: VIDYAVAHINI GROUP -->
  <text x="490" y="26" text-anchor="middle" fill="#731A73" font-family="-apple-system, BlinkMacSystemFont, 'Segoe UI', Roboto, Helvetica, Arial, sans-serif" font-weight="700" font-size="13" letter-spacing="4.5">
    VIDYAVAHINI GROUP
  </text>

  <!-- Middle Line: VAISIRI INSTITUTE OF MANAGEMENT & TECHNOLOGY -->
  <text x="490" y="65" text-anchor="middle" fill="#731A73" font-family="'Times New Roman', Times, Georgia, serif" font-weight="800" font-size="28" letter-spacing="0.3">
    VAISIRI INSTITUTE OF MANAGEMENT &amp; TECHNOLOGY
  </text>

  <!-- Bottom Line: Address -->
  <text x="490" y="98" text-anchor="middle" fill="#5B2C82" font-family="-apple-system, BlinkMacSystemFont, 'Segoe UI', Roboto, Helvetica, Arial, sans-serif" font-weight="500" font-size="15" letter-spacing="0.2">
    2nd Stage, Sri Sharadadevi Nagar, Sai Baba Temple Road, Tumkur – 572103
  </text>
</svg>
